{
	"asset":{
		"generator":"Khronos glTF Blender I/O v3.5.30",
		"version":"2.0"
	},
	"scene":0,
	"scenes":[
		{
			"name":"Scene",
			"nodes":[
				0
			]
		}
	],
	"nodes":[
		{
			"mesh":0,
			"name":"Mesh_0",
			"rotation":[
				0.005111000034958124,
				0.001955020474269986,
				-0.00044351458200253546,
				0.9999849796295166
			],
			"scale":[
				0.6803082823753357,
				0.6803082823753357,
				0.6803082227706909
			],
			"translation":[
				0.6170884966850281,
				0.4949742555618286,
				0.14348068833351135
			]
		}
	],
	"materials":[
		{
			"extensions":{
				"KHR_materials_specular":{
					"specularColorFactor":[
						0,
						0,
						0
					]
				}
			},
			"name":"Material_0",
			"pbrMetallicRoughness":{
				"baseColorTexture":{
					"index":0
				},
				"metallicFactor":0
			}
		}
	],
	"meshes":[
		{
			"name":"Mesh_0",
			"primitives":[
				{
					"attributes":{
						"POSITION":0,
						"TEXCOORD_0":1,
						"NORMAL":2
					},
					"indices":3,
					"material":0
				}
			]
		}
	],
	"textures":[
		{
			"sampler":0,
			"source":0
		}
	],
	"images":[
		{
			"mimeType":"image/jpeg",
			"name":"Image_0",
			"uri":"Image_0.jpg"
		}
	],
	"accessors":[
		{
			"bufferView":0,
			"componentType":5126,
			"count":13100,
			"max":[
				0.41649121046066284,
				0.6250529289245605,
				0.6606987118721008
			],
			"min":[
				-0.5497289299964905,
				-0.6049261093139648,
				-0.6792134642601013
			],
			"type":"VEC3"
		},
		{
			"bufferView":1,
			"componentType":5126,
			"count":13100,
			"type":"VEC2"
		},
		{
			"bufferView":2,
			"componentType":5126,
			"count":13100,
			"type":"VEC3"
		},
		{
			"bufferView":3,
			"componentType":5123,
			"count":43851,
			"type":"SCALAR"
		}
	],
	"bufferViews":[
		{
			"buffer":0,
			"byteLength":157200,
			"byteOffset":0,
			"target":34962
		},
		{
			"buffer":0,
			"byteLength":104800,
			"byteOffset":157200,
			"target":34962
		},
		{
			"buffer":0,
			"byteLength":157200,
			"byteOffset":262000,
			"target":34962
		},
		{
			"buffer":0,
			"byteLength":87702,
			"byteOffset":419200,
			"target":34963
		}
	],
	"samplers":[
		{
			"magFilter":9729,
			"minFilter":9987
		}
	],
	"buffers":[
		{
			"byteLength":506904,
			"uri":"Pedit2.bin"
		}
	]
}
