{
	"asset":{
		"generator":"Khronos glTF Blender I/O v3.5.30",
		"version":"2.0"
	},
	"extensionsUsed":[
		"KHR_materials_unlit"
	],
	"scene":0,
	"scenes":[
		{
			"name":"Scene",
			"nodes":[
				4
			]
		}
	],
	"nodes":[
		{
			"mesh":0,
			"name":"Object_4"
		},
		{
			"children":[
				0
			],
			"name":"low-poly-40k-decimate_0"
		},
		{
			"children":[
				1
			],
			"name":"GLTF_SceneRootNode",
			"rotation":[
				0.70710688829422,
				0,
				0,
				0.7071066498756409
			]
		},
		{
			"children":[
				2
			],
			"name":"root"
		},
		{
			"children":[
				3
			],
			"name":"Sketchfab_model",
			"rotation":[
				-0.644217848777771,
				-0.2915191352367401,
				-0.2915191650390625,
				0.6442177891731262
			]
		}
	],
	"materials":[
		{
			"doubleSided":true,
			"extensions":{
				"KHR_materials_unlit":{}
			},
			"name":"Material.001",
			"pbrMetallicRoughness":{
				"baseColorTexture":{
					"index":0,
					"texCoord":0
				},
				"metallicFactor":0,
				"roughnessFactor":0.9
			}
		}
	],
	"meshes":[
		{
			"name":"Object_0.003",
			"primitives":[
				{
					"attributes":{
						"POSITION":0,
						"TEXCOORD_0":1,
						"NORMAL":2
					},
					"indices":3,
					"material":0
				}
			]
		}
	],
	"textures":[
		{
			"sampler":0,
			"source":0
		}
	],
	"images":[
		{
			"mimeType":"image/png",
			"name":"Material.001_baseColor",
			"uri":"Material_001_baseColor.png"
		}
	],
	"accessors":[
		{
			"bufferView":0,
			"componentType":5126,
			"count":58581,
			"max":[
				1.2145832777023315,
				4.112768173217773,
				0.30384019017219543
			],
			"min":[
				-1.2259124517440796,
				-0.02309618890285492,
				-0.3282327651977539
			],
			"type":"VEC3"
		},
		{
			"bufferView":1,
			"componentType":5126,
			"count":58581,
			"type":"VEC2"
		},
		{
			"bufferView":2,
			"componentType":5126,
			"count":58581,
			"type":"VEC3"
		},
		{
			"bufferView":3,
			"componentType":5123,
			"count":212796,
			"type":"SCALAR"
		}
	],
	"bufferViews":[
		{
			"buffer":0,
			"byteLength":702972,
			"byteOffset":0,
			"target":34962
		},
		{
			"buffer":0,
			"byteLength":468648,
			"byteOffset":702972,
			"target":34962
		},
		{
			"buffer":0,
			"byteLength":702972,
			"byteOffset":1171620,
			"target":34962
		},
		{
			"buffer":0,
			"byteLength":425592,
			"byteOffset":1874592,
			"target":34963
		}
	],
	"samplers":[
		{
			"magFilter":9729,
			"minFilter":9987
		}
	],
	"buffers":[
		{
			"byteLength":2300184,
			"uri":"scene.bin"
		}
	]
}
