{
	"asset":{
		"generator":"Khronos glTF Blender I/O v3.5.30",
		"version":"2.0"
	},
	"scene":0,
	"scenes":[
		{
			"name":"Scene",
			"nodes":[
				0
			]
		}
	],
	"nodes":[
		{
			"mesh":0,
			"name":"Mesh_0",
			"rotation":[
				0,
				-0.7071068286895752,
				0,
				0.7071068286895752
			],
			"scale":[
				0.6803082823753357,
				0.6803082823753357,
				0.6803082227706909
			]
		}
	],
	"materials":[
		{
			"extensions":{
				"KHR_materials_specular":{
					"specularColorFactor":[
						0,
						0,
						0
					]
				}
			},
			"name":"Material_0",
			"pbrMetallicRoughness":{
				"baseColorTexture":{
					"index":0
				},
				"metallicFactor":0
			}
		}
	],
	"meshes":[
		{
			"name":"Mesh_0",
			"primitives":[
				{
					"attributes":{
						"POSITION":0,
						"TEXCOORD_0":1,
						"NORMAL":2
					},
					"indices":3,
					"material":0
				}
			]
		}
	],
	"textures":[
		{
			"sampler":0,
			"source":0
		}
	],
	"images":[
		{
			"mimeType":"image/jpeg",
			"name":"Image_0",
			"uri":"Image_0.jpg"
		}
	],
	"accessors":[
		{
			"bufferView":0,
			"componentType":5126,
			"count":87362,
			"max":[
				0.4231080710887909,
				0.6265195608139038,
				0.6595523953437805
			],
			"min":[
				-0.5539973378181458,
				-0.600020170211792,
				-0.6792833805084229
			],
			"type":"VEC3"
		},
		{
			"bufferView":1,
			"componentType":5126,
			"count":87362,
			"type":"VEC2"
		},
		{
			"bufferView":2,
			"componentType":5126,
			"count":87362,
			"type":"VEC3"
		},
		{
			"bufferView":3,
			"componentType":5125,
			"count":438519,
			"type":"SCALAR"
		}
	],
	"bufferViews":[
		{
			"buffer":0,
			"byteLength":1048344,
			"byteOffset":0,
			"target":34962
		},
		{
			"buffer":0,
			"byteLength":698896,
			"byteOffset":1048344,
			"target":34962
		},
		{
			"buffer":0,
			"byteLength":1048344,
			"byteOffset":1747240,
			"target":34962
		},
		{
			"buffer":0,
			"byteLength":1754076,
			"byteOffset":2795584,
			"target":34963
		}
	],
	"samplers":[
		{
			"magFilter":9729,
			"minFilter":9987
		}
	],
	"buffers":[
		{
			"byteLength":4549660,
			"uri":"Pedit3.bin"
		}
	]
}
