{
	"asset":{
		"generator":"Khronos glTF Blender I/O v3.5.30",
		"version":"2.0"
	},
	"extensionsUsed":[
		"KHR_materials_specular",
		"KHR_materials_ior",
		"KHR_materials_clearcoat"
	],
	"scene":0,
	"scenes":[
		{
			"name":"Scene",
			"nodes":[
				4,
				8,
				13,
				17,
				18,
				19,
				20,
				21,
				25,
				29,
				33,
				37,
				38,
				39
			]
		}
	],
	"nodes":[
		{
			"mesh":0,
			"name":"Globe__0",
			"rotation":[
				0,
				0.7011080384254456,
				0,
				0.7130550742149353
			],
			"scale":[
				0.6598348617553711,
				0.6150323152542114,
				0.6598349213600159
			],
			"translation":[
				0.28119325637817383,
				-13.601646423339844,
				-0.13176727294921875
			]
		},
		{
			"children":[
				0
			],
			"name":"Globe",
			"translation":[
				0,
				22.755725860595703,
				0
			]
		},
		{
			"children":[
				1
			],
			"name":"RootNode.002"
		},
		{
			"children":[
				2
			],
			"name":"03c7d260158a4bc8a09fea73101a4db3.fbx",
			"rotation":[
				0.70710688829422,
				0,
				0,
				0.7071066498756409
			],
			"translation":[
				0,
				0,
				-5.117373802931979e-06
			]
		},
		{
			"children":[
				3
			],
			"name":"Sketchfab_model.004",
			"rotation":[
				-0.70710688829422,
				0,
				0,
				0.7071066498756409
			],
			"scale":[
				0.357420951128006,
				0.35742098093032837,
				0.35742098093032837
			],
			"translation":[
				1.225670337677002,
				20.115449905395508,
				-6.682470321655273
			]
		},
		{
			"name":"Cylinder",
			"rotation":[
				-0.70710688829422,
				0,
				0,
				0.7071066498756409
			],
			"scale":[
				100,
				99.99999237060547,
				99.99999237060547
			]
		},
		{
			"children":[
				5
			],
			"name":"RootNode.001"
		},
		{
			"children":[
				6
			],
			"name":"Globe.fbx",
			"rotation":[
				0.70710688829422,
				0,
				0,
				0.7071066498756409
			],
			"translation":[
				0,
				0,
				-5.117373802931979e-06
			]
		},
		{
			"children":[
				7
			],
			"name":"Sketchfab_model.003",
			"rotation":[
				-0.70710688829422,
				0,
				0,
				0.7071066498756409
			],
			"scale":[
				0.357420951128006,
				0.35742098093032837,
				0.35742098093032837
			],
			"translation":[
				1.225670337677002,
				20.115449905395508,
				-6.682470321655273
			]
		},
		{
			"mesh":1,
			"name":"Cross_Cross_0",
			"rotation":[
				0,
				0,
				-0.7057582139968872,
				0.7084527611732483
			],
			"scale":[
				0.5160055160522461,
				0.5160055756568909,
				0.5160055160522461
			],
			"translation":[
				-8.2805814743042,
				-0.18069086968898773,
				2.362074851989746
			]
		},
		{
			"children":[
				9
			],
			"name":"Cross",
			"rotation":[
				-0.70710688829422,
				0,
				0,
				0.7071066498756409
			],
			"scale":[
				100,
				99.99999237060547,
				99.99999237060547
			],
			"translation":[
				0,
				0,
				3.0517565392074175e-05
			]
		},
		{
			"children":[
				10
			],
			"name":"RootNode",
			"translation":[
				0,
				0,
				3.0517565392074175e-05
			]
		},
		{
			"children":[
				11
			],
			"name":"ccb0b24daa8448dd83412b8d12460bfd.fbx",
			"rotation":[
				0.70710688829422,
				0,
				0,
				0.7071066498756409
			],
			"scale":[
				0.009999999776482582,
				0.010000000707805157,
				0.010000000707805157
			]
		},
		{
			"children":[
				12
			],
			"name":"Sketchfab_model.001",
			"rotation":[
				-0.70710688829422,
				0,
				0,
				0.7071066498756409
			],
			"scale":[
				2.121772289276123,
				2.121772527694702,
				2.121772527694702
			],
			"translation":[
				18.78084945678711,
				24.08572769165039,
				-7.022720813751221
			]
		},
		{
			"name":"Sphere",
			"rotation":[
				0,
				0,
				-0.7071068286895752,
				0.7071067094802856
			]
		},
		{
			"name":"Sphere.002",
			"rotation":[
				0,
				0,
				-0.7071068286895752,
				0.7071067094802856
			],
			"scale":[
				1.0031100511550903,
				1.0031100511550903,
				1.0031100511550903
			]
		},
		{
			"children":[
				14,
				15
			],
			"name":"Root"
		},
		{
			"children":[
				16
			],
			"name":"Sketchfab_model",
			"rotation":[
				-0.7071069478988647,
				0,
				0,
				0.7071065902709961
			],
			"scale":[
				0.19903266429901123,
				0.19903266429901123,
				0.19903266429901123
			],
			"translation":[
				1.225670337677002,
				20.115449905395508,
				-6.682470321655273
			]
		},
		{
			"name":"Empty",
			"scale":[
				0.357420951128006,
				0.357420951128006,
				0.357420951128006
			],
			"translation":[
				1.3024632930755615,
				22.98592185974121,
				-4.4144744873046875
			]
		},
		{
			"name":"Circle.001",
			"scale":[
				0.357420951128006,
				0.357420951128006,
				0.357420951128006
			],
			"translation":[
				-0.6952280402183533,
				21.038381576538086,
				-9.124279975891113
			]
		},
		{
			"name":"Circle",
			"scale":[
				0.357420951128006,
				0.357420951128006,
				0.357420951128006
			],
			"translation":[
				-0.6952280402183533,
				21.038381576538086,
				-9.124279975891113
			]
		},
		{
			"mesh":2,
			"name":"IPA",
			"rotation":[
				0.5790887475013733,
				0,
				0,
				0.8152645230293274
			],
			"scale":[
				3.0200953483581543,
				3.020094633102417,
				4.289056301116943
			],
			"translation":[
				-14.72498607635498,
				27.979217529296875,
				-4.93859338760376
			]
		},
		{
			"name":"Globe.001",
			"translation":[
				0,
				22.755727767944336,
				0
			]
		},
		{
			"children":[
				22
			],
			"name":"RootNode.003"
		},
		{
			"children":[
				23
			],
			"name":"03c7d260158a4bc8a09fea73101a4db3.fbx.001",
			"rotation":[
				0.70710688829422,
				0,
				0,
				0.7071066498756409
			]
		},
		{
			"children":[
				24
			],
			"name":"Sketchfab_model.002",
			"rotation":[
				-0.70710688829422,
				0,
				0,
				0.7071066498756409
			],
			"scale":[
				0.5525177121162415,
				0.5525177717208862,
				0.5525177717208862
			],
			"translation":[
				1.0443024635314941,
				2.2415401935577393,
				0.11190146207809448
			]
		},
		{
			"name":"Cylinder.001",
			"rotation":[
				-0.70710688829422,
				0,
				0,
				0.7071066498756409
			],
			"scale":[
				100,
				99.99999237060547,
				99.99999237060547
			]
		},
		{
			"children":[
				26
			],
			"name":"RootNode.004"
		},
		{
			"children":[
				27
			],
			"name":"Globe.fbx.001",
			"rotation":[
				0.70710688829422,
				0,
				0,
				0.7071066498756409
			]
		},
		{
			"children":[
				28
			],
			"name":"Sketchfab_model.005",
			"rotation":[
				-0.70710688829422,
				0,
				0,
				0.7071066498756409
			],
			"scale":[
				0.5525177121162415,
				0.5525177717208862,
				0.5525177717208862
			],
			"translation":[
				1.0443024635314941,
				2.2415401935577393,
				0.11190146207809448
			]
		},
		{
			"name":"Cross.001",
			"rotation":[
				-0.70710688829422,
				0,
				0,
				0.7071066498756409
			],
			"scale":[
				100,
				99.99999237060547,
				99.99999237060547
			],
			"translation":[
				0,
				-3.0517578125e-05,
				0
			]
		},
		{
			"children":[
				30
			],
			"name":"RootNode.005",
			"translation":[
				0,
				-3.0517578125e-05,
				0
			]
		},
		{
			"children":[
				31
			],
			"name":"ccb0b24daa8448dd83412b8d12460bfd.fbx.001",
			"rotation":[
				0.70710688829422,
				0,
				0,
				0.7071066498756409
			],
			"scale":[
				0.009999999776482582,
				0.010000000707805157,
				0.010000000707805157
			]
		},
		{
			"children":[
				32
			],
			"name":"Sketchfab_model.006",
			"rotation":[
				-0.70710688829422,
				0,
				0,
				0.7071066498756409
			],
			"scale":[
				2.121772289276123,
				2.121772527694702,
				2.121772527694702
			],
			"translation":[
				18.241853713989258,
				10.3766450881958,
				-0.5078035593032837
			]
		},
		{
			"name":"Sphere.001",
			"rotation":[
				0,
				0,
				-0.7071068286895752,
				0.7071067094802856
			],
			"scale":[
				1.0031100511550903,
				1.0031101703643799,
				1.0031101703643799
			]
		},
		{
			"name":"Sphere.003",
			"rotation":[
				0,
				0,
				-0.7071068286895752,
				0.7071067094802856
			]
		},
		{
			"children":[
				34,
				35
			],
			"name":"Root.001"
		},
		{
			"children":[
				36
			],
			"name":"Sketchfab_model.007",
			"rotation":[
				-0.7071069478988647,
				0,
				0,
				0.7071065902709961
			],
			"scale":[
				0.307673841714859,
				0.307673841714859,
				0.307673841714859
			],
			"translation":[
				1.0443024635314941,
				2.2415401935577393,
				0.11190146207809448
			]
		},
		{
			"mesh":3,
			"name":"globe",
			"scale":[
				0.006884490605443716,
				0.006595334503799677,
				0.006884490605443716
			],
			"translation":[
				1.2506990432739258,
				23.387042999267578,
				-6.876969814300537
			]
		},
		{
			"mesh":4,
			"name":"Text",
			"rotation":[
				0.5578867197036743,
				0,
				0,
				0.8299171328544617
			],
			"scale":[
				1.8567655086517334,
				4.053262710571289,
				4.464100360870361
			],
			"translation":[
				-7.920434474945068,
				14.309947967529297,
				-6.786215305328369
			]
		}
	],
	"animations":[
		{
			"channels":[
				{
					"sampler":0,
					"target":{
						"node":38,
						"path":"rotation"
					}
				}
			],
			"name":"globeRotate",
			"samplers":[
				{
					"input":22,
					"interpolation":"LINEAR",
					"output":23
				}
			]
		}
	],
	"materials":[
		{
			"doubleSided":true,
			"extensions":{
				"KHR_materials_specular":{
					"specularColorFactor":[
						1.14861853503094,
						1.0793923851974871,
						0.9325959956436215
					]
				},
				"KHR_materials_ior":{
					"ior":1.4500000476837158
				}
			},
			"name":"YELLOW2",
			"pbrMetallicRoughness":{
				"baseColorFactor":[
					1,
					0.6795420050621033,
					0,
					1
				],
				"metallicFactor":0.7605633735656738,
				"roughnessFactor":0.3239436745643616
			}
		},
		{
			"doubleSided":true,
			"name":"Material.007",
			"pbrMetallicRoughness":{
				"baseColorFactor":[
					0.041375137865543365,
					0.3889041841030121,
					1,
					1
				],
				"metallicFactor":0,
				"roughnessFactor":0.5
			}
		},
		{
			"doubleSided":true,
			"extensions":{
				"KHR_materials_clearcoat":{
					"clearcoatFactor":0.2535210847854614,
					"clearcoatRoughnessFactor":0.4947887361049652
				},
				"KHR_materials_specular":{
					"specularColorFactor":[
						1.6056338548660276,
						1.6056338548660276,
						1.6056338548660276
					]
				}
			},
			"name":"Earth.001",
			"pbrMetallicRoughness":{
				"baseColorTexture":{
					"index":0
				},
				"roughnessFactor":0.5901408195495605
			}
		}
	],
	"meshes":[
		{
			"name":"Globe__0",
			"primitives":[
				{
					"attributes":{
						"POSITION":0,
						"TEXCOORD_0":1,
						"NORMAL":2
					},
					"indices":3,
					"material":0
				}
			]
		},
		{
			"name":"Cross_Cross_0",
			"primitives":[
				{
					"attributes":{
						"POSITION":4,
						"TEXCOORD_0":5,
						"TEXCOORD_1":6,
						"TEXCOORD_2":7,
						"NORMAL":8
					},
					"indices":9,
					"material":0
				}
			]
		},
		{
			"name":"Text.002",
			"primitives":[
				{
					"attributes":{
						"POSITION":10,
						"TEXCOORD_0":11,
						"NORMAL":12
					},
					"indices":13,
					"material":1
				}
			]
		},
		{
			"name":"13902_Earth_v1_l3.001",
			"primitives":[
				{
					"attributes":{
						"POSITION":14,
						"TEXCOORD_0":15,
						"NORMAL":16
					},
					"indices":17,
					"material":2
				}
			]
		},
		{
			"name":"Text",
			"primitives":[
				{
					"attributes":{
						"POSITION":18,
						"TEXCOORD_0":19,
						"NORMAL":20
					},
					"indices":21,
					"material":0
				}
			]
		}
	],
	"textures":[
		{
			"sampler":0,
			"source":0
		}
	],
	"images":[
		{
			"mimeType":"image/jpeg",
			"name":"Earth_diff",
			"uri":"Earth_diff.jpg"
		}
	],
	"accessors":[
		{
			"bufferView":0,
			"componentType":5126,
			"count":923,
			"max":[
				8.011819839477539,
				16.070056915283203,
				8.916705131530762
			],
			"min":[
				-7.360620975494385,
				-22.755727767944336,
				-16.757116317749023
			],
			"type":"VEC3"
		},
		{
			"bufferView":1,
			"componentType":5126,
			"count":923,
			"type":"VEC2"
		},
		{
			"bufferView":2,
			"componentType":5126,
			"count":923,
			"type":"VEC3"
		},
		{
			"bufferView":3,
			"componentType":5123,
			"count":4434,
			"type":"SCALAR"
		},
		{
			"bufferView":4,
			"componentType":5126,
			"count":515,
			"max":[
				0.12063013017177582,
				1.4340648651123047,
				2.285398483276367
			],
			"min":[
				-0.12063013017177582,
				-1.4340648651123047,
				-2.177290916442871
			],
			"type":"VEC3"
		},
		{
			"bufferView":5,
			"componentType":5126,
			"count":515,
			"type":"VEC2"
		},
		{
			"bufferView":6,
			"componentType":5126,
			"count":515,
			"type":"VEC2"
		},
		{
			"bufferView":7,
			"componentType":5126,
			"count":515,
			"type":"VEC2"
		},
		{
			"bufferView":8,
			"componentType":5126,
			"count":515,
			"type":"VEC3"
		},
		{
			"bufferView":9,
			"componentType":5123,
			"count":2016,
			"type":"SCALAR"
		},
		{
			"bufferView":10,
			"componentType":5126,
			"count":100655,
			"max":[
				10.68653678894043,
				0.004999999888241291,
				0.16532132029533386
			],
			"min":[
				0.013498368673026562,
				-0.004999999888241291,
				-0.5207801461219788
			],
			"type":"VEC3"
		},
		{
			"bufferView":11,
			"componentType":5126,
			"count":100655,
			"type":"VEC2"
		},
		{
			"bufferView":12,
			"componentType":5126,
			"count":100655,
			"type":"VEC3"
		},
		{
			"bufferView":13,
			"componentType":5125,
			"count":508092,
			"type":"SCALAR"
		},
		{
			"bufferView":14,
			"componentType":5126,
			"count":8249,
			"max":[
				488.0181884765625,
				493.15631103515625,
				488.0181884765625
			],
			"min":[
				-488.0181884765625,
				-493.15631103515625,
				-488.0181884765625
			],
			"type":"VEC3"
		},
		{
			"bufferView":15,
			"componentType":5126,
			"count":8249,
			"type":"VEC2"
		},
		{
			"bufferView":16,
			"componentType":5126,
			"count":8249,
			"type":"VEC3"
		},
		{
			"bufferView":17,
			"componentType":5123,
			"count":47616,
			"type":"SCALAR"
		},
		{
			"bufferView":18,
			"componentType":5126,
			"count":41841,
			"max":[
				15.038297653198242,
				0.6574447154998779,
				0.013813495635986328
			],
			"min":[
				-4.989912509918213,
				-0.20004427433013916,
				-1.5441040992736816
			],
			"type":"VEC3"
		},
		{
			"bufferView":19,
			"componentType":5126,
			"count":41841,
			"type":"VEC2"
		},
		{
			"bufferView":20,
			"componentType":5126,
			"count":41841,
			"type":"VEC3"
		},
		{
			"bufferView":21,
			"componentType":5123,
			"count":66648,
			"type":"SCALAR"
		},
		{
			"bufferView":22,
			"componentType":5126,
			"count":119,
			"max":[
				4.958333333333333
			],
			"min":[
				0.041666666666666664
			],
			"type":"SCALAR"
		},
		{
			"bufferView":23,
			"componentType":5126,
			"count":119,
			"type":"VEC4"
		}
	],
	"bufferViews":[
		{
			"buffer":0,
			"byteLength":11076,
			"byteOffset":0,
			"target":34962
		},
		{
			"buffer":0,
			"byteLength":7384,
			"byteOffset":11076,
			"target":34962
		},
		{
			"buffer":0,
			"byteLength":11076,
			"byteOffset":18460,
			"target":34962
		},
		{
			"buffer":0,
			"byteLength":8868,
			"byteOffset":29536,
			"target":34963
		},
		{
			"buffer":0,
			"byteLength":6180,
			"byteOffset":38404,
			"target":34962
		},
		{
			"buffer":0,
			"byteLength":4120,
			"byteOffset":44584,
			"target":34962
		},
		{
			"buffer":0,
			"byteLength":4120,
			"byteOffset":48704,
			"target":34962
		},
		{
			"buffer":0,
			"byteLength":4120,
			"byteOffset":52824,
			"target":34962
		},
		{
			"buffer":0,
			"byteLength":6180,
			"byteOffset":56944,
			"target":34962
		},
		{
			"buffer":0,
			"byteLength":4032,
			"byteOffset":63124,
			"target":34963
		},
		{
			"buffer":0,
			"byteLength":1207860,
			"byteOffset":67156,
			"target":34962
		},
		{
			"buffer":0,
			"byteLength":805240,
			"byteOffset":1275016,
			"target":34962
		},
		{
			"buffer":0,
			"byteLength":1207860,
			"byteOffset":2080256,
			"target":34962
		},
		{
			"buffer":0,
			"byteLength":2032368,
			"byteOffset":3288116,
			"target":34963
		},
		{
			"buffer":0,
			"byteLength":98988,
			"byteOffset":5320484,
			"target":34962
		},
		{
			"buffer":0,
			"byteLength":65992,
			"byteOffset":5419472,
			"target":34962
		},
		{
			"buffer":0,
			"byteLength":98988,
			"byteOffset":5485464,
			"target":34962
		},
		{
			"buffer":0,
			"byteLength":95232,
			"byteOffset":5584452,
			"target":34963
		},
		{
			"buffer":0,
			"byteLength":502092,
			"byteOffset":5679684,
			"target":34962
		},
		{
			"buffer":0,
			"byteLength":334728,
			"byteOffset":6181776,
			"target":34962
		},
		{
			"buffer":0,
			"byteLength":502092,
			"byteOffset":6516504,
			"target":34962
		},
		{
			"buffer":0,
			"byteLength":133296,
			"byteOffset":7018596,
			"target":34963
		},
		{
			"buffer":0,
			"byteLength":476,
			"byteOffset":7151892
		},
		{
			"buffer":0,
			"byteLength":1904,
			"byteOffset":7152368
		}
	],
	"samplers":[
		{
			"magFilter":9729,
			"minFilter":9987
		}
	],
	"buffers":[
		{
			"byteLength":7154272,
			"uri":"globe4.bin"
		}
	]
}
