{
	"asset":{
		"generator":"Khronos glTF Blender I/O v3.5.30",
		"version":"2.0"
	},
	"extensionsUsed":[
		"KHR_materials_specular",
		"KHR_materials_ior",
		"KHR_materials_clearcoat"
	],
	"scene":0,
	"scenes":[
		{
			"name":"Scene",
			"nodes":[
				0,
				5,
				9,
				14,
				18,
				19,
				20,
				21,
				22
			]
		}
	],
	"nodes":[
		{
			"mesh":0,
			"name":"Text",
			"rotation":[
				0.70710688829422,
				0,
				0,
				0.7071066498756409
			],
			"scale":[
				0.15009772777557373,
				0.01741277426481247,
				2.2514286041259766
			],
			"translation":[
				1.2296096086502075,
				7.8486552238464355,
				6.300417900085449
			]
		},
		{
			"mesh":1,
			"name":"Globe__0",
			"rotation":[
				0,
				0.7011080384254456,
				0,
				0.7130550742149353
			],
			"scale":[
				0.6598349213600159,
				0.6150323748588562,
				0.6598349809646606
			],
			"translation":[
				0.28119349479675293,
				-13.601645469665527,
				-0.1317676454782486
			]
		},
		{
			"children":[
				1
			],
			"name":"Globe",
			"translation":[
				0,
				22.755727767944336,
				0
			]
		},
		{
			"children":[
				2
			],
			"name":"RootNode.002"
		},
		{
			"children":[
				3
			],
			"name":"03c7d260158a4bc8a09fea73101a4db3.fbx",
			"rotation":[
				0.70710688829422,
				0,
				0,
				0.7071066498756409
			]
		},
		{
			"children":[
				4
			],
			"name":"Sketchfab_model.004",
			"rotation":[
				-0.70710688829422,
				0,
				0,
				0.7071066498756409
			],
			"scale":[
				0.5525177121162415,
				0.5525177717208862,
				0.5525177717208862
			],
			"translation":[
				1.0443024635314941,
				2.2415401935577393,
				0.11190146207809448
			]
		},
		{
			"name":"Cylinder",
			"rotation":[
				-0.70710688829422,
				0,
				0,
				0.7071066498756409
			],
			"scale":[
				100,
				99.99999237060547,
				99.99999237060547
			]
		},
		{
			"children":[
				6
			],
			"name":"RootNode.001"
		},
		{
			"children":[
				7
			],
			"name":"Globe.fbx",
			"rotation":[
				0.70710688829422,
				0,
				0,
				0.7071066498756409
			]
		},
		{
			"children":[
				8
			],
			"name":"Sketchfab_model.003",
			"rotation":[
				-0.70710688829422,
				0,
				0,
				0.7071066498756409
			],
			"scale":[
				0.5525177121162415,
				0.5525177717208862,
				0.5525177717208862
			],
			"translation":[
				1.0443024635314941,
				2.2415401935577393,
				0.11190146207809448
			]
		},
		{
			"mesh":2,
			"name":"Cross_Cross_0",
			"rotation":[
				0,
				0,
				-0.7057582139968872,
				0.7084527611732483
			],
			"scale":[
				0.7229220867156982,
				0.7229220867156982,
				0.7229220867156982
			],
			"translation":[
				-8.116860389709473,
				-0.18069124221801758,
				2.3620738983154297
			]
		},
		{
			"children":[
				10
			],
			"name":"Cross",
			"rotation":[
				-0.70710688829422,
				0,
				0,
				0.7071066498756409
			],
			"scale":[
				100,
				99.99999237060547,
				99.99999237060547
			],
			"translation":[
				0,
				-3.0517578125e-05,
				0
			]
		},
		{
			"children":[
				11
			],
			"name":"RootNode",
			"translation":[
				0,
				-3.0517578125e-05,
				0
			]
		},
		{
			"children":[
				12
			],
			"name":"ccb0b24daa8448dd83412b8d12460bfd.fbx",
			"rotation":[
				0.70710688829422,
				0,
				0,
				0.7071066498756409
			],
			"scale":[
				0.009999999776482582,
				0.010000000707805157,
				0.010000000707805157
			]
		},
		{
			"children":[
				13
			],
			"name":"Sketchfab_model.001",
			"rotation":[
				-0.70710688829422,
				0,
				0,
				0.7071066498756409
			],
			"scale":[
				2.121772289276123,
				2.121772527694702,
				2.121772527694702
			],
			"translation":[
				18.241853713989258,
				10.3766450881958,
				-0.5078035593032837
			]
		},
		{
			"name":"Sphere",
			"rotation":[
				0,
				0,
				-0.7071068286895752,
				0.7071067094802856
			]
		},
		{
			"name":"Sphere.002",
			"rotation":[
				0,
				0,
				-0.7071068286895752,
				0.7071067094802856
			],
			"scale":[
				1.0031100511550903,
				1.0031101703643799,
				1.0031101703643799
			]
		},
		{
			"children":[
				15,
				16
			],
			"name":"Root"
		},
		{
			"children":[
				17
			],
			"name":"Sketchfab_model",
			"rotation":[
				-0.7071069478988647,
				0,
				0,
				0.7071065902709961
			],
			"scale":[
				0.307673841714859,
				0.307673841714859,
				0.307673841714859
			],
			"translation":[
				1.0443024635314941,
				2.2415401935577393,
				0.11190146207809448
			]
		},
		{
			"name":"Empty",
			"scale":[
				0.5525177121162415,
				0.5525177121162415,
				0.5525177121162415
			],
			"translation":[
				1.1630127429962158,
				6.678849220275879,
				3.617873191833496
			]
		},
		{
			"name":"Circle.001",
			"scale":[
				0.5525177121162415,
				0.5525177121162415,
				0.5525177121162415
			],
			"translation":[
				-1.9251103401184082,
				3.6682519912719727,
				-3.6627588272094727
			]
		},
		{
			"name":"Circle",
			"scale":[
				0.5525177121162415,
				0.5525177121162415,
				0.5525177121162415
			],
			"translation":[
				-1.9251103401184082,
				3.6682519912719727,
				-3.6627588272094727
			]
		},
		{
			"mesh":3,
			"name":"13902_Earth_v1_l3",
			"scale":[
				0.01064236182719469,
				0.010195370763540268,
				0.01064236182719469
			],
			"translation":[
				1.0464829206466675,
				7.19584321975708,
				-0.17005273699760437
			]
		}
	],
	"materials":[
		{
			"alphaMode":"BLEND",
			"doubleSided":true,
			"name":"Material.002",
			"pbrMetallicRoughness":{}
		},
		{
			"doubleSided":true,
			"extensions":{
				"KHR_materials_specular":{
					"specularColorFactor":[
						1.14861853503094,
						1.0793923851974871,
						0.9325959956436215
					]
				},
				"KHR_materials_ior":{
					"ior":1.4500000476837158
				}
			},
			"name":"Material.005",
			"pbrMetallicRoughness":{
				"baseColorFactor":[
					1,
					0.6795420050621033,
					0,
					1
				],
				"metallicFactor":0.7605633735656738,
				"roughnessFactor":0.3239436745643616
			}
		},
		{
			"doubleSided":true,
			"extensions":{
				"KHR_materials_specular":{
					"specularColorFactor":[
						1.25247766502105,
						1.25247766502105,
						1.25247766502105
					]
				},
				"KHR_materials_ior":{
					"ior":1.4500000476837158
				}
			},
			"name":"Material.001",
			"pbrMetallicRoughness":{
				"baseColorFactor":[
					1,
					0.6795420050621033,
					0,
					1
				],
				"metallicFactor":0.8450704216957092,
				"roughnessFactor":0.3732394576072693
			}
		},
		{
			"doubleSided":true,
			"extensions":{
				"KHR_materials_clearcoat":{
					"clearcoatFactor":0.2535210847854614,
					"clearcoatRoughnessFactor":0.4947887361049652
				},
				"KHR_materials_specular":{
					"specularColorFactor":[
						1.6056338548660276,
						1.6056338548660276,
						1.6056338548660276
					]
				}
			},
			"name":"Earth",
			"pbrMetallicRoughness":{
				"baseColorTexture":{
					"index":0
				},
				"roughnessFactor":0.5901408195495605
			}
		}
	],
	"meshes":[
		{
			"name":"Text.002",
			"primitives":[
				{
					"attributes":{
						"POSITION":0,
						"TEXCOORD_0":1,
						"NORMAL":2
					},
					"indices":3,
					"material":0
				}
			]
		},
		{
			"name":"Globe__0",
			"primitives":[
				{
					"attributes":{
						"POSITION":4,
						"TEXCOORD_0":5,
						"NORMAL":6
					},
					"indices":7,
					"material":1
				}
			]
		},
		{
			"name":"Cross_Cross_0",
			"primitives":[
				{
					"attributes":{
						"POSITION":8,
						"TEXCOORD_0":9,
						"TEXCOORD_1":10,
						"TEXCOORD_2":11,
						"NORMAL":12
					},
					"indices":13,
					"material":2
				}
			]
		},
		{
			"name":"13902_Earth_v1_l3",
			"primitives":[
				{
					"attributes":{
						"POSITION":14,
						"TEXCOORD_0":15,
						"NORMAL":16
					},
					"indices":17,
					"material":3
				}
			]
		}
	],
	"textures":[
		{
			"sampler":0,
			"source":0
		}
	],
	"images":[
		{
			"mimeType":"image/jpeg",
			"name":"Earth_diff",
			"uri":"Earth_diff.jpg"
		}
	],
	"accessors":[
		{
			"bufferView":0,
			"componentType":5126,
			"count":53874,
			"max":[
				27.436832427978516,
				5.9969482421875,
				0.06081199645996094
			],
			"min":[
				-30.06196403503418,
				-94.57548522949219,
				-0.7337057590484619
			],
			"type":"VEC3"
		},
		{
			"bufferView":1,
			"componentType":5126,
			"count":53874,
			"type":"VEC2"
		},
		{
			"bufferView":2,
			"componentType":5126,
			"count":53874,
			"type":"VEC3"
		},
		{
			"bufferView":3,
			"componentType":5123,
			"count":77604,
			"type":"SCALAR"
		},
		{
			"bufferView":4,
			"componentType":5126,
			"count":923,
			"max":[
				8.011819839477539,
				16.070056915283203,
				8.916705131530762
			],
			"min":[
				-7.360620975494385,
				-22.755727767944336,
				-16.757116317749023
			],
			"type":"VEC3"
		},
		{
			"bufferView":5,
			"componentType":5126,
			"count":923,
			"type":"VEC2"
		},
		{
			"bufferView":6,
			"componentType":5126,
			"count":923,
			"type":"VEC3"
		},
		{
			"bufferView":7,
			"componentType":5123,
			"count":4434,
			"type":"SCALAR"
		},
		{
			"bufferView":8,
			"componentType":5126,
			"count":515,
			"max":[
				0.12063013017177582,
				1.4340648651123047,
				2.285398483276367
			],
			"min":[
				-0.12063013017177582,
				-1.4340648651123047,
				-2.177290916442871
			],
			"type":"VEC3"
		},
		{
			"bufferView":9,
			"componentType":5126,
			"count":515,
			"type":"VEC2"
		},
		{
			"bufferView":10,
			"componentType":5126,
			"count":515,
			"type":"VEC2"
		},
		{
			"bufferView":11,
			"componentType":5126,
			"count":515,
			"type":"VEC2"
		},
		{
			"bufferView":12,
			"componentType":5126,
			"count":515,
			"type":"VEC3"
		},
		{
			"bufferView":13,
			"componentType":5123,
			"count":2016,
			"type":"SCALAR"
		},
		{
			"bufferView":14,
			"componentType":5126,
			"count":8249,
			"max":[
				488.0181884765625,
				493.15631103515625,
				488.0181884765625
			],
			"min":[
				-488.0181884765625,
				-493.15631103515625,
				-488.0181884765625
			],
			"type":"VEC3"
		},
		{
			"bufferView":15,
			"componentType":5126,
			"count":8249,
			"type":"VEC2"
		},
		{
			"bufferView":16,
			"componentType":5126,
			"count":8249,
			"type":"VEC3"
		},
		{
			"bufferView":17,
			"componentType":5123,
			"count":47616,
			"type":"SCALAR"
		}
	],
	"bufferViews":[
		{
			"buffer":0,
			"byteLength":646488,
			"byteOffset":0,
			"target":34962
		},
		{
			"buffer":0,
			"byteLength":430992,
			"byteOffset":646488,
			"target":34962
		},
		{
			"buffer":0,
			"byteLength":646488,
			"byteOffset":1077480,
			"target":34962
		},
		{
			"buffer":0,
			"byteLength":155208,
			"byteOffset":1723968,
			"target":34963
		},
		{
			"buffer":0,
			"byteLength":11076,
			"byteOffset":1879176,
			"target":34962
		},
		{
			"buffer":0,
			"byteLength":7384,
			"byteOffset":1890252,
			"target":34962
		},
		{
			"buffer":0,
			"byteLength":11076,
			"byteOffset":1897636,
			"target":34962
		},
		{
			"buffer":0,
			"byteLength":8868,
			"byteOffset":1908712,
			"target":34963
		},
		{
			"buffer":0,
			"byteLength":6180,
			"byteOffset":1917580,
			"target":34962
		},
		{
			"buffer":0,
			"byteLength":4120,
			"byteOffset":1923760,
			"target":34962
		},
		{
			"buffer":0,
			"byteLength":4120,
			"byteOffset":1927880,
			"target":34962
		},
		{
			"buffer":0,
			"byteLength":4120,
			"byteOffset":1932000,
			"target":34962
		},
		{
			"buffer":0,
			"byteLength":6180,
			"byteOffset":1936120,
			"target":34962
		},
		{
			"buffer":0,
			"byteLength":4032,
			"byteOffset":1942300,
			"target":34963
		},
		{
			"buffer":0,
			"byteLength":98988,
			"byteOffset":1946332,
			"target":34962
		},
		{
			"buffer":0,
			"byteLength":65992,
			"byteOffset":2045320,
			"target":34962
		},
		{
			"buffer":0,
			"byteLength":98988,
			"byteOffset":2111312,
			"target":34962
		},
		{
			"buffer":0,
			"byteLength":95232,
			"byteOffset":2210300,
			"target":34963
		}
	],
	"samplers":[
		{
			"magFilter":9729,
			"minFilter":9987
		}
	],
	"buffers":[
		{
			"byteLength":2305532,
			"uri":"globe1.bin"
		}
	]
}
